<?xml version="1.0" encoding="UTF-8"?>
<!DOCTYPE svg PUBLIC "-//W3C//DTD SVG 1.1//EN" "http://www.w3.org/Graphics/SVG/1.1/DTD/svg11.dtd">
<!-- Creator: CorelDRAW 2019 (64-Bit) -->
<svg xmlns="http://www.w3.org/2000/svg" xml:space="preserve" width="73.0218mm" height="25.9244mm" version="1.1" style="shape-rendering:geometricPrecision; text-rendering:geometricPrecision; image-rendering:optimizeQuality; fill-rule:evenodd; clip-rule:evenodd"
viewBox="0 0 4582.56 1626.91"
 xmlns:xlink="http://www.w3.org/1999/xlink"
 xmlns:xodm="http://www.corel.com/coreldraw/odm/2003">
 <defs>
  <style type="text/css">
   <![CDATA[
    .fil0 {fill:white;fill-rule:nonzero}
   ]]>
  </style>
 </defs>
 <g id="Capa_x0020_1">
  <metadata id="CorelCorpID_0Corel-Layer"/>
  <path class="fil0" d="M132.31 1302.65c-35.41,-1.86 -54.05,-7.46 -54.05,-20.5 0,-27.96 50.32,-61.5 150.95,-102.5 98.77,-39.13 165.86,-59.63 201.26,-59.63 1.86,0 1.86,1.86 3.73,3.72l0 31.69c0,14.9 5.59,22.36 14.91,22.36 9.32,0 14.91,-5.59 20.5,-14.9 1.86,-1.86 1.86,-3.73 1.86,-9.32 0,-18.64 1.86,-31.69 5.59,-39.13 3.73,-5.59 46.59,-9.32 128.59,-9.32 14.91,0 22.37,0 22.37,1.86l-13.05 9.32c-165.86,106.22 -309.36,165.86 -434.22,182.63l-48.45 3.73zm3.73 74.55c72.68,0 162.13,-22.37 268.36,-65.23 104.36,-42.86 210.58,-102.5 316.81,-178.9l22.36 -16.77c11.18,0 33.54,3.73 68.96,9.31 46.58,11.18 72.68,18.64 78.27,24.23 5.59,5.59 11.18,7.46 16.77,7.46 5.59,0 11.18,-3.73 16.77,-11.18l1.86 -11.18c0,-14.9 -18.64,-27.95 -55.91,-39.13l-68.95 -20.5c0,-1.86 0,-3.73 1.86,-5.59 0,-1.86 5.59,-5.59 16.77,-13.05 126.72,-106.23 227.36,-221.77 301.9,-346.63 72.68,-124.86 109.95,-238.54 109.95,-344.76 0,-16.77 -1.86,-35.41 -3.73,-52.18 -14.91,-102.49 -57.77,-178.9 -130.45,-232.94 -72.68,-54.05 -156.54,-80.14 -253.45,-80.14 -150.95,0 -292.58,57.77 -424.9,175.18 -35.41,31.69 -65.23,67.09 -85.72,106.23 -20.5,39.13 -31.69,72.68 -31.69,100.64 0,11.18 1.86,20.5 3.73,27.95 9.32,16.77 18.64,24.22 29.82,24.22 13.04,0 18.63,-11.18 18.63,-35.41 0,-46.59 26.09,-96.91 80.13,-147.22 52.18,-50.32 117.41,-91.32 193.82,-126.72 76.41,-33.55 154.67,-50.32 238.54,-50.32 98.77,7.45 171.45,37.27 219.9,87.59 46.59,50.31 70.82,115.54 70.82,193.81 0,100.64 -37.28,212.45 -113.68,337.31 -76.41,124.87 -188.22,244.13 -335.44,357.81 -1.86,1.86 -1.86,1.86 -1.86,1.86 -1.86,0 -3.73,0 -5.59,0l-11.18 0c-46.59,-5.59 -91.32,-7.46 -132.31,-7.46l-74.54 1.86c0,-9.32 5.59,-52.18 18.64,-126.72 20.5,-121.13 57.77,-257.17 111.81,-406.26 39.13,-113.68 78.27,-199.41 113.68,-257.18 7.46,-11.18 11.18,-20.5 11.18,-27.95 -1.86,-14.91 -11.18,-22.36 -27.95,-22.36 -35.41,0 -89.45,95.04 -165.86,283.26 -27.96,80.13 -54.05,175.18 -76.41,285.13 -22.36,111.82 -33.54,203.14 -33.54,273.95l0 1.86c0,1.86 -1.86,1.86 -3.73,1.86 -3.73,1.86 -7.46,1.86 -11.18,1.86 -147.23,24.22 -264.63,65.23 -348.49,126.72 -46.59,39.13 -70.82,74.54 -70.82,108.09 0,20.5 9.32,39.13 27.96,55.9 18.63,16.77 46.59,26.09 82,29.82l26.09 1.86zm1120.02 -396.94c-1.86,0 -3.73,-7.46 -3.73,-20.5 0,-42.86 9.31,-85.72 27.95,-126.72 20.5,-46.59 42.86,-74.54 68.95,-83.86 5.59,0 13.05,5.59 22.37,16.77 3.73,5.59 9.32,9.31 14.91,13.04l3.72 16.77c0,1.86 0,5.59 -1.86,9.32 -1.86,3.73 -5.59,9.32 -9.32,18.63 -39.13,80.14 -76.41,130.45 -113.68,152.82l-9.31 3.73zm-11.18 54.05c54.05,0 111.81,-59.64 177.04,-178.9 7.46,-13.05 11.18,-20.5 13.04,-20.5 13.05,5.59 27.96,9.32 46.59,9.32 44.73,0 98.77,-14.91 164,-46.59 7.45,-5.59 11.18,-11.18 11.18,-18.64 0,-9.31 -7.46,-14.9 -20.5,-16.77 -5.59,0 -13.05,1.86 -26.09,5.59 -59.63,20.5 -104.36,29.82 -132.31,29.82 -16.77,0 -24.22,-5.59 -24.22,-18.64l1.86 -24.22c-1.86,-26.09 -13.05,-39.13 -37.27,-39.13 -5.59,0 -9.32,-1.86 -11.18,-7.46 -16.77,-18.64 -33.54,-27.95 -54.05,-27.95 -24.22,0 -50.32,11.18 -76.41,33.54 -26.09,24.22 -48.45,55.91 -65.22,96.91 -20.5,50.32 -31.69,95.04 -31.69,132.31 0,52.18 18.64,82 57.77,91.32l7.46 0zm327.99 -13.05c13.05,0 35.41,-14.91 63.36,-42.86 72.68,-72.68 149.08,-137.91 231.08,-195.68l1.86 1.86c-5.59,14.91 -7.45,29.82 -7.45,46.59 3.72,48.45 22.36,72.68 54.04,72.68 13.05,0 26.09,-5.59 42.86,-16.77 22.37,-13.05 59.64,-39.13 113.68,-78.27l29.82 -20.5c-9.32,35.41 -14.91,59.64 -14.91,76.41 1.86,46.59 20.5,70.82 59.64,70.82 22.36,0 82,-26.09 178.9,-76.41 57.77,-31.69 91.32,-50.32 98.77,-55.91 7.45,-5.59 11.18,-13.05 11.18,-20.5 0,-5.59 -1.86,-9.31 -5.59,-14.9 -5.59,-5.59 -9.31,-7.46 -14.9,-7.46 -7.46,0 -22.37,5.59 -44.73,18.63 -121.13,61.5 -190.09,93.18 -210.58,93.18 -1.86,0 -1.86,-1.86 -3.73,-3.73 0,-5.59 3.73,-22.36 13.04,-48.45 16.77,-48.45 24.23,-82 24.23,-100.63 0,-24.23 -11.18,-35.41 -31.68,-35.41 -9.32,0 -50.32,26.09 -121.14,76.41 -63.36,42.86 -98.77,63.36 -104.36,63.36 11.18,-55.9 16.77,-87.59 16.77,-93.17 0,-26.09 -11.18,-41 -31.68,-42.86 -26.09,0 -106.22,55.9 -240.4,165.86l-26.09 20.5c13.05,-27.95 27.96,-54.05 41,-80.13 13.05,-24.22 24.23,-44.73 29.82,-57.77 5.59,-13.04 9.32,-24.22 9.32,-31.68 0,-9.32 -3.73,-16.77 -9.32,-24.22 -7.46,-5.59 -14.91,-9.32 -22.37,-9.32 -26.09,0 -67.09,61.49 -123,182.63 -27.95,57.77 -42.86,98.77 -42.86,126.72 0,27.95 11.18,41 35.41,41zm939.25 -227.36c-14.91,0 -24.23,-1.86 -29.82,-3.73 0,-1.86 3.73,-5.59 9.32,-11.18 5.59,-5.59 11.18,-13.04 18.64,-20.5 7.45,-7.46 14.9,-13.05 20.5,-18.64 42.86,-31.68 74.54,-46.59 95.04,-46.59 11.18,0 16.77,3.73 16.77,13.05 -3.73,22.37 -16.77,42.86 -41,59.64 -18.64,13.04 -39.14,22.36 -61.5,26.09l-27.95 1.86zm-70.82 223.63c44.73,0 108.09,-18.64 190.09,-57.77 80.13,-37.27 162.13,-85.72 242.26,-147.22 16.77,-13.05 26.09,-22.37 26.09,-29.82 0,-5.59 -1.86,-9.31 -5.59,-14.9 -3.73,-3.73 -7.46,-5.59 -13.05,-5.59 -5.59,0 -26.09,11.18 -59.64,33.54 -68.95,46.59 -141.63,87.59 -218.04,123l-20.5 9.32c-44.73,22.36 -82,33.54 -113.68,33.54 -33.55,0 -50.32,-14.9 -50.32,-42.86 0,-13.05 1.86,-26.09 7.46,-39.13 5.59,-13.05 11.18,-22.36 16.77,-31.68 5.59,-9.32 11.18,-13.05 14.91,-13.05 14.9,7.46 31.68,11.18 52.18,11.18 42.86,0 83.86,-13.05 124.86,-41 46.59,-31.68 68.95,-68.96 68.95,-109.95 0,-9.31 -3.73,-22.36 -9.32,-35.41 -5.59,-13.05 -16.77,-22.36 -29.82,-27.95 -13.05,-5.59 -27.95,-7.46 -42.86,-7.46 -22.36,0 -42.86,3.73 -63.36,13.05 -50.32,20.5 -95.04,54.04 -134.18,100.63 -46.59,55.91 -70.82,115.55 -76.41,177.04 0,57.77 24.23,91.32 74.55,100.64l18.63 1.86zm197.54 542.3l-1.86 0c-31.68,0 -48.45,-22.36 -48.45,-68.95 0,-37.27 16.77,-83.86 48.45,-139.77 31.69,-54.05 87.59,-132.31 169.59,-234.81 14.9,-18.64 26.09,-33.55 35.41,-44.73 9.32,-11.18 14.9,-20.5 20.5,-26.09 5.59,-5.59 9.32,-11.18 11.18,-13.04 1.86,-1.86 1.86,-3.73 3.73,-3.73l0 1.86c1.86,5.59 1.86,22.36 3.73,48.45 1.86,27.96 1.86,55.91 1.86,83.87 0,29.82 0,54.04 -1.86,72.68 -9.32,76.41 -26.09,137.91 -52.18,184.5 -18.64,33.54 -42.86,61.49 -70.81,85.72 -29.82,24.22 -59.64,41 -91.32,50.31 -9.32,1.86 -18.64,3.73 -27.96,3.73zm11.18 67.09c50.32,0 98.77,-20.5 149.09,-61.5 50.32,-39.13 87.59,-91.32 113.68,-152.81 29.82,-61.5 44.73,-147.23 44.73,-253.45 0,-50.32 -3.73,-108.09 -9.32,-177.04l-1.86 -26.09c0,-5.59 1.86,-13.04 5.59,-18.63 1.86,-5.59 9.32,-13.05 18.64,-24.23 3.73,-5.59 7.46,-11.18 13.04,-16.77 42.86,-52.18 76.41,-91.32 96.91,-117.41 20.5,-26.09 39.13,-52.18 59.64,-80.13 11.18,-14.9 26.09,-35.41 44.73,-61.49 18.63,-24.23 37.27,-46.59 55.91,-70.82 16.77,-24.22 31.68,-42.86 41,-57.77l24.22 -31.69 -18.64 39.13c-106.22,225.5 -203.13,473.36 -288.85,741.71 -9.32,24.23 -13.05,39.13 -13.05,48.45 0,3.73 1.86,7.46 3.73,9.32 1.86,1.86 3.73,3.73 5.59,5.59 5.59,1.86 9.32,3.73 14.91,3.73 5.59,0 11.18,-1.86 16.77,-5.59 5.59,-1.86 9.32,-7.46 11.18,-13.05 5.59,-14.9 26.09,-70.81 65.23,-167.72 37.27,-95.04 78.27,-199.4 124.86,-309.36 44.73,-109.95 82,-195.67 109.95,-253.45 14.91,-31.68 27.96,-59.64 41,-83.86 11.18,-22.36 20.5,-41 27.96,-57.77 7.46,-16.77 14.9,-29.82 20.5,-39.13 5.59,-9.32 9.32,-18.63 11.18,-24.22 1.86,-5.59 5.59,-9.32 7.46,-11.18l1.86 -1.86c1.86,-1.86 18.63,-3.73 50.32,-7.46 29.82,-3.73 67.09,-9.31 111.81,-14.9 13.05,-1.86 27.95,-3.73 41,-5.59 149.09,-20.5 234.81,-29.82 257.17,-29.82l14.91 1.86c5.59,0 9.32,-1.86 13.04,-7.45 3.73,-3.73 5.59,-7.46 5.59,-13.05 0,-5.59 -3.73,-13.05 -9.31,-18.64 -1.86,-1.86 -3.73,-1.86 -7.46,-3.73 -3.73,0 -9.32,0 -16.77,0 -20.5,0 -68.95,3.73 -145.36,9.32 -31.68,1.86 -67.09,5.59 -108.08,7.46 -42.86,3.73 -80.13,7.46 -113.68,9.32 -33.55,3.73 -54.05,5.59 -59.64,7.46l-1.86 0 26.09 -50.32c18.64,-35.41 31.69,-63.36 39.14,-80.13 7.45,-16.77 11.18,-26.09 11.18,-31.69 0,-7.45 -1.86,-13.04 -7.46,-18.63 -5.59,-3.73 -11.18,-5.59 -16.77,-5.59l-3.73 0c-5.59,1.86 -16.77,13.05 -33.54,33.54 -16.77,20.5 -35.41,44.73 -54.05,70.82 -20.5,26.09 -37.27,48.45 -50.32,67.09l-20.5 27.95 -1.86 0c-1.86,1.86 -1.86,1.86 -3.73,1.86 -3.73,1.86 -9.32,1.86 -14.91,1.86 -5.59,1.86 -13.05,1.86 -22.36,3.73 -259.04,33.54 -387.63,67.09 -387.63,102.5 0,5.59 1.86,9.32 7.46,14.9 1.86,1.86 3.73,1.86 5.59,3.73 1.86,1.86 3.73,1.86 5.59,1.86 5.59,0 14.91,-1.86 27.95,-5.59 76.41,-16.77 150.95,-29.82 227.36,-39.13 20.5,-1.86 41,-5.59 61.5,-7.45l44.73 -7.46c0,1.86 -16.77,26.09 -50.32,70.81 -35.41,44.73 -74.54,95.04 -119.27,152.82 -44.73,57.77 -85.72,109.95 -121.14,154.67 -16.77,20.5 -29.82,37.27 -41,50.32 -26.09,35.41 -41,52.18 -44.73,52.18 -1.86,0 -3.73,-3.73 -3.73,-11.18l0 -20.5c0,-22.36 1.86,-46.59 5.59,-72.68 1.86,-24.22 11.18,-46.59 26.09,-65.22 5.59,-7.46 13.04,-13.05 18.63,-14.91 5.59,-1.86 11.18,-3.73 16.77,-5.59 9.32,-1.86 16.77,-3.73 24.22,-9.32 5.59,-5.59 9.32,-11.18 9.32,-16.77 0,-7.46 -3.73,-14.91 -11.18,-22.37 -9.31,-5.59 -16.77,-9.32 -26.09,-11.18l-22.36 -3.73c-26.09,0 -48.45,11.18 -67.09,31.69 -18.63,22.36 -29.82,46.59 -35.41,70.81 -5.59,35.41 -9.32,80.13 -9.32,134.18 0,35.41 1.86,70.81 3.73,102.5 0,1.86 0,1.86 0,1.86 0,1.86 0,1.86 -1.86,3.72 -1.86,1.86 -3.73,5.59 -5.59,7.46 -1.86,3.73 -5.59,7.46 -9.32,13.05 -5.59,5.59 -11.18,13.05 -16.77,22.37 -87.59,108.08 -149.09,190.08 -188.22,244.13 -39.13,54.05 -67.09,100.64 -83.86,139.77 -20.5,46.59 -31.68,89.45 -31.68,126.72 0,67.09 31.68,108.08 95.04,123l20.5 1.86zm710.03 -654.12c27.95,0 68.95,-13.05 119.27,-41 50.32,-26.09 95.04,-54.05 136.04,-82 41,-27.96 63.36,-44.73 68.96,-50.32 3.72,-5.59 5.59,-11.18 5.59,-16.77 0,-13.04 -7.45,-20.5 -20.5,-20.5 -9.32,0 -26.09,9.32 -52.18,29.82 -54.05,35.41 -102.5,63.36 -149.08,85.72 -46.59,22.37 -76.41,33.54 -91.32,33.54 -5.59,0 -7.46,-1.86 -7.46,-5.59 5.59,-31.68 31.68,-78.27 78.27,-141.63 16.77,-22.37 24.22,-39.13 24.22,-52.18 0,-9.32 -3.72,-16.77 -9.31,-22.37 -5.59,-5.59 -13.05,-7.45 -20.5,-7.45 -24.22,0 -59.64,39.13 -104.36,115.54 -24.23,42.86 -37.28,78.27 -37.28,108.08 0,33.55 16.77,55.91 48.45,65.23l11.18 1.86zm162.13 -372.71c9.32,0 18.64,-11.18 26.09,-33.55l1.86 -3.73c11.18,-26.09 27.95,-39.13 48.45,-39.13l14.91 1.86c11.18,0 16.77,-5.59 16.77,-18.63 0,-16.77 -14.91,-24.23 -46.59,-24.23 -13.05,0 -27.96,3.73 -41,9.32 -13.05,5.59 -24.23,16.77 -33.54,31.68 -9.32,14.91 -13.05,27.96 -13.05,41 0,13.05 5.59,24.23 16.77,31.69l9.32 3.73zm175.18 400.67c7.46,0 16.77,0 26.09,-1.86 9.31,-1.86 18.63,-1.86 24.22,-3.73 5.59,-1.86 11.18,-1.86 13.05,-1.86 22.36,-5.59 52.18,-16.77 91.32,-37.27 39.13,-18.63 78.27,-39.13 121.13,-63.36 41,-22.37 76.41,-42.86 106.22,-61.5 29.82,-16.77 46.59,-27.95 50.32,-33.54 3.73,-3.73 5.59,-7.46 5.59,-13.05 0,-9.32 -3.73,-14.9 -11.18,-20.5l-9.31 -1.86c-9.32,0 -31.69,11.18 -67.09,31.68 -156.54,95.04 -260.9,143.5 -311.22,145.36l-22.36 0c-16.77,0 -24.23,-7.46 -24.23,-24.23 5.59,-52.18 24.23,-102.49 55.91,-149.08 26.09,-39.13 50.32,-57.77 74.54,-57.77 7.46,0 14.91,3.73 24.23,13.05 7.46,9.32 11.18,20.5 13.04,31.68 3.73,16.77 11.18,24.22 22.37,24.22 9.32,0 18.64,-7.45 26.09,-24.22 1.86,-7.46 3.73,-14.91 3.73,-22.36 0,-22.37 -9.32,-44.73 -26.09,-65.23 -16.77,-20.5 -41,-29.82 -68.96,-29.82 -65.22,0 -123,59.63 -177.03,178.9 -13.05,35.41 -18.64,65.22 -18.64,91.31 0,50.32 22.36,82 67.09,95.04l11.18 0zm316.81 137.91c14.91,0 26.09,-16.77 33.54,-52.18l39.14 -104.36c9.31,-20.5 13.04,-31.69 14.9,-31.69l5.59 1.86c27.95,20.5 57.77,29.82 91.32,29.82 48.45,0 98.77,-13.05 152.81,-39.13 52.18,-26.09 98.77,-52.18 137.91,-80.14 39.13,-27.95 63.36,-46.58 76.41,-55.9 11.18,-9.32 16.77,-18.64 16.77,-26.09 -1.86,-13.04 -7.46,-18.63 -20.5,-18.63 -3.73,0 -7.46,1.86 -11.18,3.73 -5.59,1.86 -11.18,5.59 -18.64,9.31 -61.49,41 -124.86,76.41 -186.35,104.36 -55.91,26.09 -102.5,39.13 -141.63,39.13 -39.13,-3.73 -59.64,-14.9 -59.64,-31.68 0,-39.13 80.13,-108.09 242.27,-203.13 31.68,-20.5 48.45,-33.55 48.45,-41 -3.72,-16.77 -14.9,-26.09 -31.68,-26.09 -41,0 -106.22,31.68 -197.54,96.91 -5.59,3.73 -9.32,7.46 -11.18,9.32 -3.73,1.86 -5.59,3.73 -7.46,3.73 42.86,-102.5 89.45,-212.45 141.63,-326.13 24.22,-52.18 41,-89.45 52.18,-113.68 9.32,-24.23 26.09,-57.77 50.32,-102.5 22.36,-42.86 33.54,-70.81 33.54,-82 0,-1.86 -1.86,-5.59 -3.73,-11.18 -5.59,-9.32 -13.05,-14.9 -22.37,-14.9 -11.18,0 -22.36,7.45 -33.54,24.22 -59.63,91.32 -124.86,225.5 -197.54,400.67 -72.68,177.04 -137.91,367.12 -197.54,570.26 -7.46,22.36 -11.18,37.27 -11.18,46.59 0,9.31 3.72,16.77 9.31,18.63l5.59 1.86z"/>
 </g>
</svg>
